<?xml version="1.0" encoding="utf-8"?>
<svg xmlns="http://www.w3.org/2000/svg" xmlns:xlink="http://www.w3.org/1999/xlink" width="600" height="400" viewBox="0 0 2400 1600">
<defs>
  <clipPath id="clip170">
    <rect x="0" y="0" width="2400" height="1600"/>
  </clipPath>
</defs>
<path clip-path="url(#clip170)" d="M0 1600 L2400 1600 L2400 0 L0 0  Z" fill="#ffffff" fill-rule="evenodd" fill-opacity="1"/>
<defs>
  <clipPath id="clip171">
    <rect x="480" y="0" width="1681" height="1600"/>
  </clipPath>
</defs>
<path clip-path="url(#clip170)" d="M249.542 1423.18 L2352.76 1423.18 L2352.76 47.2441 L249.542 47.2441  Z" fill="#ffffff" fill-rule="evenodd" fill-opacity="1"/>
<defs>
  <clipPath id="clip172">
    <rect x="249" y="47" width="2104" height="1377"/>
  </clipPath>
</defs>
<polyline clip-path="url(#clip172)" style="stroke:#000000; stroke-linecap:round; stroke-linejoin:round; stroke-width:2; stroke-opacity:0.1; fill:none" points="412.611,1423.18 412.611,47.2441 "/>
<polyline clip-path="url(#clip172)" style="stroke:#000000; stroke-linecap:round; stroke-linejoin:round; stroke-width:2; stroke-opacity:0.1; fill:none" points="531.083,1423.18 531.083,47.2441 "/>
<polyline clip-path="url(#clip172)" style="stroke:#000000; stroke-linecap:round; stroke-linejoin:round; stroke-width:2; stroke-opacity:0.1; fill:none" points="649.555,1423.18 649.555,47.2441 "/>
<polyline clip-path="url(#clip172)" style="stroke:#000000; stroke-linecap:round; stroke-linejoin:round; stroke-width:2; stroke-opacity:0.1; fill:none" points="768.026,1423.18 768.026,47.2441 "/>
<polyline clip-path="url(#clip172)" style="stroke:#000000; stroke-linecap:round; stroke-linejoin:round; stroke-width:2; stroke-opacity:0.1; fill:none" points="886.498,1423.18 886.498,47.2441 "/>
<polyline clip-path="url(#clip172)" style="stroke:#000000; stroke-linecap:round; stroke-linejoin:round; stroke-width:2; stroke-opacity:0.1; fill:none" points="1004.97,1423.18 1004.97,47.2441 "/>
<polyline clip-path="url(#clip172)" style="stroke:#000000; stroke-linecap:round; stroke-linejoin:round; stroke-width:2; stroke-opacity:0.1; fill:none" points="1123.44,1423.18 1123.44,47.2441 "/>
<polyline clip-path="url(#clip172)" style="stroke:#000000; stroke-linecap:round; stroke-linejoin:round; stroke-width:2; stroke-opacity:0.1; fill:none" points="1241.91,1423.18 1241.91,47.2441 "/>
<polyline clip-path="url(#clip172)" style="stroke:#000000; stroke-linecap:round; stroke-linejoin:round; stroke-width:2; stroke-opacity:0.1; fill:none" points="1360.38,1423.18 1360.38,47.2441 "/>
<polyline clip-path="url(#clip172)" style="stroke:#000000; stroke-linecap:round; stroke-linejoin:round; stroke-width:2; stroke-opacity:0.1; fill:none" points="1478.86,1423.18 1478.86,47.2441 "/>
<polyline clip-path="url(#clip172)" style="stroke:#000000; stroke-linecap:round; stroke-linejoin:round; stroke-width:2; stroke-opacity:0.1; fill:none" points="1597.33,1423.18 1597.33,47.2441 "/>
<polyline clip-path="url(#clip172)" style="stroke:#000000; stroke-linecap:round; stroke-linejoin:round; stroke-width:2; stroke-opacity:0.1; fill:none" points="1715.8,1423.18 1715.8,47.2441 "/>
<polyline clip-path="url(#clip172)" style="stroke:#000000; stroke-linecap:round; stroke-linejoin:round; stroke-width:2; stroke-opacity:0.1; fill:none" points="1834.27,1423.18 1834.27,47.2441 "/>
<polyline clip-path="url(#clip172)" style="stroke:#000000; stroke-linecap:round; stroke-linejoin:round; stroke-width:2; stroke-opacity:0.1; fill:none" points="1952.74,1423.18 1952.74,47.2441 "/>
<polyline clip-path="url(#clip172)" style="stroke:#000000; stroke-linecap:round; stroke-linejoin:round; stroke-width:2; stroke-opacity:0.1; fill:none" points="2071.22,1423.18 2071.22,47.2441 "/>
<polyline clip-path="url(#clip172)" style="stroke:#000000; stroke-linecap:round; stroke-linejoin:round; stroke-width:2; stroke-opacity:0.1; fill:none" points="2189.69,1423.18 2189.69,47.2441 "/>
<polyline clip-path="url(#clip170)" style="stroke:#000000; stroke-linecap:round; stroke-linejoin:round; stroke-width:4; stroke-opacity:1; fill:none" points="249.542,1423.18 2352.76,1423.18 "/>
<polyline clip-path="url(#clip170)" style="stroke:#000000; stroke-linecap:round; stroke-linejoin:round; stroke-width:4; stroke-opacity:1; fill:none" points="412.611,1423.18 412.611,1404.28 "/>
<polyline clip-path="url(#clip170)" style="stroke:#000000; stroke-linecap:round; stroke-linejoin:round; stroke-width:4; stroke-opacity:1; fill:none" points="531.083,1423.18 531.083,1404.28 "/>
<polyline clip-path="url(#clip170)" style="stroke:#000000; stroke-linecap:round; stroke-linejoin:round; stroke-width:4; stroke-opacity:1; fill:none" points="649.555,1423.18 649.555,1404.28 "/>
<polyline clip-path="url(#clip170)" style="stroke:#000000; stroke-linecap:round; stroke-linejoin:round; stroke-width:4; stroke-opacity:1; fill:none" points="768.026,1423.18 768.026,1404.28 "/>
<polyline clip-path="url(#clip170)" style="stroke:#000000; stroke-linecap:round; stroke-linejoin:round; stroke-width:4; stroke-opacity:1; fill:none" points="886.498,1423.18 886.498,1404.28 "/>
<polyline clip-path="url(#clip170)" style="stroke:#000000; stroke-linecap:round; stroke-linejoin:round; stroke-width:4; stroke-opacity:1; fill:none" points="1004.97,1423.18 1004.97,1404.28 "/>
<polyline clip-path="url(#clip170)" style="stroke:#000000; stroke-linecap:round; stroke-linejoin:round; stroke-width:4; stroke-opacity:1; fill:none" points="1123.44,1423.18 1123.44,1404.28 "/>
<polyline clip-path="url(#clip170)" style="stroke:#000000; stroke-linecap:round; stroke-linejoin:round; stroke-width:4; stroke-opacity:1; fill:none" points="1241.91,1423.18 1241.91,1404.28 "/>
<polyline clip-path="url(#clip170)" style="stroke:#000000; stroke-linecap:round; stroke-linejoin:round; stroke-width:4; stroke-opacity:1; fill:none" points="1360.38,1423.18 1360.38,1404.28 "/>
<polyline clip-path="url(#clip170)" style="stroke:#000000; stroke-linecap:round; stroke-linejoin:round; stroke-width:4; stroke-opacity:1; fill:none" points="1478.86,1423.18 1478.86,1404.28 "/>
<polyline clip-path="url(#clip170)" style="stroke:#000000; stroke-linecap:round; stroke-linejoin:round; stroke-width:4; stroke-opacity:1; fill:none" points="1597.33,1423.18 1597.33,1404.28 "/>
<polyline clip-path="url(#clip170)" style="stroke:#000000; stroke-linecap:round; stroke-linejoin:round; stroke-width:4; stroke-opacity:1; fill:none" points="1715.8,1423.18 1715.8,1404.28 "/>
<polyline clip-path="url(#clip170)" style="stroke:#000000; stroke-linecap:round; stroke-linejoin:round; stroke-width:4; stroke-opacity:1; fill:none" points="1834.27,1423.18 1834.27,1404.28 "/>
<polyline clip-path="url(#clip170)" style="stroke:#000000; stroke-linecap:round; stroke-linejoin:round; stroke-width:4; stroke-opacity:1; fill:none" points="1952.74,1423.18 1952.74,1404.28 "/>
<polyline clip-path="url(#clip170)" style="stroke:#000000; stroke-linecap:round; stroke-linejoin:round; stroke-width:4; stroke-opacity:1; fill:none" points="2071.22,1423.18 2071.22,1404.28 "/>
<polyline clip-path="url(#clip170)" style="stroke:#000000; stroke-linecap:round; stroke-linejoin:round; stroke-width:4; stroke-opacity:1; fill:none" points="2189.69,1423.18 2189.69,1404.28 "/>
<path clip-path="url(#clip170)" d="M400.019 1472.55 Q394.857 1472.55 392.866 1473.73 Q390.875 1474.91 390.875 1477.76 Q390.875 1480.02 392.357 1481.37 Q393.861 1482.69 396.431 1482.69 Q399.972 1482.69 402.102 1480.19 Q404.255 1477.66 404.255 1473.5 L404.255 1472.55 L400.019 1472.55 M408.514 1470.79 L408.514 1485.58 L404.255 1485.58 L404.255 1481.64 Q402.796 1484.01 400.621 1485.14 Q398.445 1486.25 395.296 1486.25 Q391.315 1486.25 388.954 1484.03 Q386.616 1481.78 386.616 1478.03 Q386.616 1473.66 389.533 1471.44 Q392.472 1469.21 398.283 1469.21 L404.255 1469.21 L404.255 1468.8 Q404.255 1465.86 402.31 1464.26 Q400.389 1462.64 396.894 1462.64 Q394.672 1462.64 392.565 1463.17 Q390.459 1463.7 388.514 1464.77 L388.514 1460.83 Q390.852 1459.93 393.051 1459.49 Q395.25 1459.03 397.334 1459.03 Q402.958 1459.03 405.736 1461.95 Q408.514 1464.86 408.514 1470.79 Z" fill="#000000" fill-rule="nonzero" fill-opacity="1" /><path clip-path="url(#clip170)" d="M418.699 1481.64 L426.338 1481.64 L426.338 1455.28 L418.028 1456.95 L418.028 1452.69 L426.292 1451.02 L430.968 1451.02 L430.968 1481.64 L438.606 1481.64 L438.606 1485.58 L418.699 1485.58 L418.699 1481.64 Z" fill="#000000" fill-rule="nonzero" fill-opacity="1" /><path clip-path="url(#clip170)" d="M529.127 1471.55 L529.127 1473.64 L509.544 1473.64 Q509.821 1478.03 512.183 1480.35 Q514.567 1482.64 518.803 1482.64 Q521.257 1482.64 523.548 1482.04 Q525.863 1481.44 528.132 1480.23 L528.132 1484.26 Q525.84 1485.23 523.432 1485.74 Q521.025 1486.25 518.548 1486.25 Q512.345 1486.25 508.71 1482.64 Q505.099 1479.03 505.099 1472.87 Q505.099 1466.51 508.525 1462.78 Q511.974 1459.03 517.808 1459.03 Q523.039 1459.03 526.071 1462.41 Q529.127 1465.77 529.127 1471.55 M524.868 1470.3 Q524.821 1466.81 522.9 1464.72 Q521.002 1462.64 517.854 1462.64 Q514.289 1462.64 512.136 1464.65 Q510.007 1466.67 509.683 1470.33 L524.868 1470.3 Z" fill="#000000" fill-rule="nonzero" fill-opacity="1" /><path clip-path="url(#clip170)" d="M540.747 1481.64 L557.067 1481.64 L557.067 1485.58 L535.122 1485.58 L535.122 1481.64 Q537.784 1478.89 542.368 1474.26 Q546.974 1469.61 548.155 1468.27 Q550.4 1465.74 551.28 1464.01 Q552.182 1462.25 552.182 1460.56 Q552.182 1457.8 550.238 1456.07 Q548.317 1454.33 545.215 1454.33 Q543.016 1454.33 540.562 1455.09 Q538.131 1455.86 535.354 1457.41 L535.354 1452.69 Q538.178 1451.55 540.631 1450.97 Q543.085 1450.39 545.122 1450.39 Q550.493 1450.39 553.687 1453.08 Q556.881 1455.77 556.881 1460.26 Q556.881 1462.39 556.071 1464.31 Q555.284 1466.2 553.178 1468.8 Q552.599 1469.47 549.497 1472.69 Q546.395 1475.88 540.747 1481.64 Z" fill="#000000" fill-rule="nonzero" fill-opacity="1" /><path clip-path="url(#clip170)" d="M647.413 1471.55 L647.413 1473.64 L627.83 1473.64 Q628.108 1478.03 630.469 1480.35 Q632.853 1482.64 637.089 1482.64 Q639.543 1482.64 641.835 1482.04 Q644.15 1481.44 646.418 1480.23 L646.418 1484.26 Q644.126 1485.23 641.719 1485.74 Q639.312 1486.25 636.835 1486.25 Q630.631 1486.25 626.997 1482.64 Q623.386 1479.03 623.386 1472.87 Q623.386 1466.51 626.812 1462.78 Q630.261 1459.03 636.094 1459.03 Q641.325 1459.03 644.358 1462.41 Q647.413 1465.77 647.413 1471.55 M643.154 1470.3 Q643.108 1466.81 641.187 1464.72 Q639.288 1462.64 636.14 1462.64 Q632.576 1462.64 630.423 1464.65 Q628.293 1466.67 627.969 1470.33 L643.154 1470.3 Z" fill="#000000" fill-rule="nonzero" fill-opacity="1" /><path clip-path="url(#clip170)" d="M655.816 1481.64 L663.455 1481.64 L663.455 1455.28 L655.145 1456.95 L655.145 1452.69 L663.409 1451.02 L668.085 1451.02 L668.085 1481.64 L675.723 1481.64 L675.723 1485.58 L655.816 1485.58 L655.816 1481.64 Z" fill="#000000" fill-rule="nonzero" fill-opacity="1" /><path clip-path="url(#clip170)" d="M760.723 1472.64 Q760.723 1467.94 758.779 1465.28 Q756.857 1462.59 753.478 1462.59 Q750.098 1462.59 748.154 1465.28 Q746.232 1467.94 746.232 1472.64 Q746.232 1477.34 748.154 1480.02 Q750.098 1482.69 753.478 1482.69 Q756.857 1482.69 758.779 1480.02 Q760.723 1477.34 760.723 1472.64 M746.232 1463.59 Q747.575 1461.27 749.612 1460.16 Q751.672 1459.03 754.519 1459.03 Q759.242 1459.03 762.181 1462.78 Q765.144 1466.53 765.144 1472.64 Q765.144 1478.75 762.181 1482.5 Q759.242 1486.25 754.519 1486.25 Q751.672 1486.25 749.612 1485.14 Q747.575 1484.01 746.232 1481.69 L746.232 1485.58 L741.95 1485.58 L741.95 1449.56 L746.232 1449.56 L746.232 1463.59 Z" fill="#000000" fill-rule="nonzero" fill-opacity="1" /><path clip-path="url(#clip170)" d="M786.973 1466.95 Q790.329 1467.66 792.204 1469.93 Q794.103 1472.2 794.103 1475.53 Q794.103 1480.65 790.584 1483.45 Q787.066 1486.25 780.584 1486.25 Q778.408 1486.25 776.093 1485.81 Q773.802 1485.39 771.348 1484.54 L771.348 1480.02 Q773.292 1481.16 775.607 1481.74 Q777.922 1482.32 780.445 1482.32 Q784.843 1482.32 787.135 1480.58 Q789.45 1478.84 789.45 1475.53 Q789.45 1472.48 787.297 1470.77 Q785.167 1469.03 781.348 1469.03 L777.32 1469.03 L777.32 1465.19 L781.533 1465.19 Q784.982 1465.19 786.811 1463.82 Q788.64 1462.43 788.64 1459.84 Q788.64 1457.18 786.741 1455.77 Q784.867 1454.33 781.348 1454.33 Q779.427 1454.33 777.228 1454.75 Q775.029 1455.16 772.39 1456.04 L772.39 1451.88 Q775.052 1451.14 777.367 1450.77 Q779.704 1450.39 781.765 1450.39 Q787.089 1450.39 790.191 1452.83 Q793.292 1455.23 793.292 1459.35 Q793.292 1462.22 791.649 1464.21 Q790.005 1466.18 786.973 1466.95 Z" fill="#000000" fill-rule="nonzero" fill-opacity="1" /><path clip-path="url(#clip170)" d="M879.669 1472.64 Q879.669 1467.94 877.725 1465.28 Q875.804 1462.59 872.424 1462.59 Q869.044 1462.59 867.1 1465.28 Q865.179 1467.94 865.179 1472.64 Q865.179 1477.34 867.1 1480.02 Q869.044 1482.69 872.424 1482.69 Q875.804 1482.69 877.725 1480.02 Q879.669 1477.34 879.669 1472.64 M865.179 1463.59 Q866.521 1461.27 868.558 1460.16 Q870.618 1459.03 873.466 1459.03 Q878.188 1459.03 881.128 1462.78 Q884.091 1466.53 884.091 1472.64 Q884.091 1478.75 881.128 1482.5 Q878.188 1486.25 873.466 1486.25 Q870.618 1486.25 868.558 1485.14 Q866.521 1484.01 865.179 1481.69 L865.179 1485.58 L860.896 1485.58 L860.896 1449.56 L865.179 1449.56 L865.179 1463.59 Z" fill="#000000" fill-rule="nonzero" fill-opacity="1" /><path clip-path="url(#clip170)" d="M895.78 1481.64 L912.1 1481.64 L912.1 1485.58 L890.155 1485.58 L890.155 1481.64 Q892.817 1478.89 897.401 1474.26 Q902.007 1469.61 903.188 1468.27 Q905.433 1465.74 906.313 1464.01 Q907.216 1462.25 907.216 1460.56 Q907.216 1457.8 905.271 1456.07 Q903.35 1454.33 900.248 1454.33 Q898.049 1454.33 895.595 1455.09 Q893.165 1455.86 890.387 1457.41 L890.387 1452.69 Q893.211 1451.55 895.665 1450.97 Q898.118 1450.39 900.155 1450.39 Q905.526 1450.39 908.72 1453.08 Q911.915 1455.77 911.915 1460.26 Q911.915 1462.39 911.104 1464.31 Q910.317 1466.2 908.211 1468.8 Q907.632 1469.47 904.53 1472.69 Q901.428 1475.88 895.78 1481.64 Z" fill="#000000" fill-rule="nonzero" fill-opacity="1" /><path clip-path="url(#clip170)" d="M1001.05 1460.65 L1001.05 1464.63 Q999.241 1463.64 997.412 1463.15 Q995.606 1462.64 993.755 1462.64 Q989.611 1462.64 987.319 1465.28 Q985.028 1467.89 985.028 1472.64 Q985.028 1477.39 987.319 1480.02 Q989.611 1482.64 993.755 1482.64 Q995.606 1482.64 997.412 1482.15 Q999.241 1481.64 1001.05 1480.65 L1001.05 1484.58 Q999.264 1485.42 997.342 1485.83 Q995.444 1486.25 993.292 1486.25 Q987.435 1486.25 983.986 1482.57 Q980.537 1478.89 980.537 1472.64 Q980.537 1466.3 984.009 1462.66 Q987.505 1459.03 993.569 1459.03 Q995.537 1459.03 997.412 1459.45 Q999.287 1459.84 1001.05 1460.65 Z" fill="#000000" fill-rule="nonzero" fill-opacity="1" /><path clip-path="url(#clip170)" d="M1013.08 1481.64 L1029.4 1481.64 L1029.4 1485.58 L1007.46 1485.58 L1007.46 1481.64 Q1010.12 1478.89 1014.7 1474.26 Q1019.31 1469.61 1020.49 1468.27 Q1022.74 1465.74 1023.62 1464.01 Q1024.52 1462.25 1024.52 1460.56 Q1024.52 1457.8 1022.57 1456.07 Q1020.65 1454.33 1017.55 1454.33 Q1015.35 1454.33 1012.9 1455.09 Q1010.47 1455.86 1007.69 1457.41 L1007.69 1452.69 Q1010.51 1451.55 1012.97 1450.97 Q1015.42 1450.39 1017.46 1450.39 Q1022.83 1450.39 1026.02 1453.08 Q1029.22 1455.77 1029.22 1460.26 Q1029.22 1462.39 1028.41 1464.31 Q1027.62 1466.2 1025.51 1468.8 Q1024.93 1469.47 1021.83 1472.69 Q1018.73 1475.88 1013.08 1481.64 Z" fill="#000000" fill-rule="nonzero" fill-opacity="1" /><path clip-path="url(#clip170)" d="M1119.33 1460.65 L1119.33 1464.63 Q1117.53 1463.64 1115.7 1463.15 Q1113.89 1462.64 1112.04 1462.64 Q1107.9 1462.64 1105.61 1465.28 Q1103.31 1467.89 1103.31 1472.64 Q1103.31 1477.39 1105.61 1480.02 Q1107.9 1482.64 1112.04 1482.64 Q1113.89 1482.64 1115.7 1482.15 Q1117.53 1481.64 1119.33 1480.65 L1119.33 1484.58 Q1117.55 1485.42 1115.63 1485.83 Q1113.73 1486.25 1111.58 1486.25 Q1105.72 1486.25 1102.27 1482.57 Q1098.82 1478.89 1098.82 1472.64 Q1098.82 1466.3 1102.3 1462.66 Q1105.79 1459.03 1111.86 1459.03 Q1113.82 1459.03 1115.7 1459.45 Q1117.57 1459.84 1119.33 1460.65 Z" fill="#000000" fill-rule="nonzero" fill-opacity="1" /><path clip-path="url(#clip170)" d="M1128.15 1481.64 L1135.79 1481.64 L1135.79 1455.28 L1127.48 1456.95 L1127.48 1452.69 L1135.74 1451.02 L1140.42 1451.02 L1140.42 1481.64 L1148.06 1481.64 L1148.06 1485.58 L1128.15 1485.58 L1128.15 1481.64 Z" fill="#000000" fill-rule="nonzero" fill-opacity="1" /><path clip-path="url(#clip170)" d="M1237.51 1460.65 L1237.51 1464.63 Q1235.71 1463.64 1233.88 1463.15 Q1232.08 1462.64 1230.22 1462.64 Q1226.08 1462.64 1223.79 1465.28 Q1221.5 1467.89 1221.5 1472.64 Q1221.5 1477.39 1223.79 1480.02 Q1226.08 1482.64 1230.22 1482.64 Q1232.08 1482.64 1233.88 1482.15 Q1235.71 1481.64 1237.51 1480.65 L1237.51 1484.58 Q1235.73 1485.42 1233.81 1485.83 Q1231.91 1486.25 1229.76 1486.25 Q1223.9 1486.25 1220.45 1482.57 Q1217.01 1478.89 1217.01 1472.64 Q1217.01 1466.3 1220.48 1462.66 Q1223.97 1459.03 1230.04 1459.03 Q1232.01 1459.03 1233.88 1459.45 Q1235.76 1459.84 1237.51 1460.65 Z" fill="#000000" fill-rule="nonzero" fill-opacity="1" /><path clip-path="url(#clip170)" d="M1259.69 1466.95 Q1263.05 1467.66 1264.92 1469.93 Q1266.82 1472.2 1266.82 1475.53 Q1266.82 1480.65 1263.3 1483.45 Q1259.78 1486.25 1253.3 1486.25 Q1251.13 1486.25 1248.81 1485.81 Q1246.52 1485.39 1244.07 1484.54 L1244.07 1480.02 Q1246.01 1481.16 1248.33 1481.74 Q1250.64 1482.32 1253.16 1482.32 Q1257.56 1482.32 1259.85 1480.58 Q1262.17 1478.84 1262.17 1475.53 Q1262.17 1472.48 1260.01 1470.77 Q1257.89 1469.03 1254.07 1469.03 L1250.04 1469.03 L1250.04 1465.19 L1254.25 1465.19 Q1257.7 1465.19 1259.53 1463.82 Q1261.36 1462.43 1261.36 1459.84 Q1261.36 1457.18 1259.46 1455.77 Q1257.58 1454.33 1254.07 1454.33 Q1252.14 1454.33 1249.95 1454.75 Q1247.75 1455.16 1245.11 1456.04 L1245.11 1451.88 Q1247.77 1451.14 1250.08 1450.77 Q1252.42 1450.39 1254.48 1450.39 Q1259.81 1450.39 1262.91 1452.83 Q1266.01 1455.23 1266.01 1459.35 Q1266.01 1462.22 1264.37 1464.21 Q1262.72 1466.18 1259.69 1466.95 Z" fill="#000000" fill-rule="nonzero" fill-opacity="1" /><path clip-path="url(#clip170)" d="M1353.37 1472.64 Q1353.37 1467.94 1351.43 1465.28 Q1349.51 1462.59 1346.13 1462.59 Q1342.75 1462.59 1340.8 1465.28 Q1338.88 1467.94 1338.88 1472.64 Q1338.88 1477.34 1340.8 1480.02 Q1342.75 1482.69 1346.13 1482.69 Q1349.51 1482.69 1351.43 1480.02 Q1353.37 1477.34 1353.37 1472.64 M1338.88 1463.59 Q1340.22 1461.27 1342.26 1460.16 Q1344.32 1459.03 1347.17 1459.03 Q1351.89 1459.03 1354.83 1462.78 Q1357.79 1466.53 1357.79 1472.64 Q1357.79 1478.75 1354.83 1482.5 Q1351.89 1486.25 1347.17 1486.25 Q1344.32 1486.25 1342.26 1485.14 Q1340.22 1484.01 1338.88 1481.69 L1338.88 1485.58 L1334.6 1485.58 L1334.6 1449.56 L1338.88 1449.56 L1338.88 1463.59 Z" fill="#000000" fill-rule="nonzero" fill-opacity="1" /><path clip-path="url(#clip170)" d="M1366.26 1481.64 L1373.9 1481.64 L1373.9 1455.28 L1365.59 1456.95 L1365.59 1452.69 L1373.86 1451.02 L1378.53 1451.02 L1378.53 1481.64 L1386.17 1481.64 L1386.17 1485.58 L1366.26 1485.58 L1366.26 1481.64 Z" fill="#000000" fill-rule="nonzero" fill-opacity="1" /><path clip-path="url(#clip170)" d="M1453.78 1449.56 L1458.06 1449.56 L1458.06 1470.83 L1470.77 1459.65 L1476.21 1459.65 L1462.46 1471.78 L1476.78 1485.58 L1471.23 1485.58 L1458.06 1472.92 L1458.06 1485.58 L1453.78 1485.58 L1453.78 1449.56 Z" fill="#000000" fill-rule="nonzero" fill-opacity="1" /><path clip-path="url(#clip170)" d="M1491.99 1454.1 Q1488.38 1454.1 1486.55 1457.66 Q1484.75 1461.2 1484.75 1468.33 Q1484.75 1475.44 1486.55 1479.01 Q1488.38 1482.55 1491.99 1482.55 Q1495.63 1482.55 1497.43 1479.01 Q1499.26 1475.44 1499.26 1468.33 Q1499.26 1461.2 1497.43 1457.66 Q1495.63 1454.1 1491.99 1454.1 M1491.99 1450.39 Q1497.8 1450.39 1500.86 1455 Q1503.94 1459.58 1503.94 1468.33 Q1503.94 1477.06 1500.86 1481.67 Q1497.8 1486.25 1491.99 1486.25 Q1486.18 1486.25 1483.1 1481.67 Q1480.05 1477.06 1480.05 1468.33 Q1480.05 1459.58 1483.1 1455 Q1486.18 1450.39 1491.99 1450.39 Z" fill="#000000" fill-rule="nonzero" fill-opacity="1" /><path clip-path="url(#clip170)" d="M1589.7 1472.64 Q1589.7 1467.94 1587.76 1465.28 Q1585.84 1462.59 1582.46 1462.59 Q1579.08 1462.59 1577.13 1465.28 Q1575.21 1467.94 1575.21 1472.64 Q1575.21 1477.34 1577.13 1480.02 Q1579.08 1482.69 1582.46 1482.69 Q1585.84 1482.69 1587.76 1480.02 Q1589.7 1477.34 1589.7 1472.64 M1575.21 1463.59 Q1576.55 1461.27 1578.59 1460.16 Q1580.65 1459.03 1583.5 1459.03 Q1588.22 1459.03 1591.16 1462.78 Q1594.12 1466.53 1594.12 1472.64 Q1594.12 1478.75 1591.16 1482.5 Q1588.22 1486.25 1583.5 1486.25 Q1580.65 1486.25 1578.59 1485.14 Q1576.55 1484.01 1575.21 1481.69 L1575.21 1485.58 L1570.93 1485.58 L1570.93 1449.56 L1575.21 1449.56 L1575.21 1463.59 Z" fill="#000000" fill-rule="nonzero" fill-opacity="1" /><path clip-path="url(#clip170)" d="M1611.78 1454.1 Q1608.17 1454.1 1606.34 1457.66 Q1604.54 1461.2 1604.54 1468.33 Q1604.54 1475.44 1606.34 1479.01 Q1608.17 1482.55 1611.78 1482.55 Q1615.42 1482.55 1617.22 1479.01 Q1619.05 1475.44 1619.05 1468.33 Q1619.05 1461.2 1617.22 1457.66 Q1615.42 1454.1 1611.78 1454.1 M1611.78 1450.39 Q1617.59 1450.39 1620.65 1455 Q1623.73 1459.58 1623.73 1468.33 Q1623.73 1477.06 1620.65 1481.67 Q1617.59 1486.25 1611.78 1486.25 Q1605.97 1486.25 1602.9 1481.67 Q1599.84 1477.06 1599.84 1468.33 Q1599.84 1459.58 1602.9 1455 Q1605.97 1450.39 1611.78 1450.39 Z" fill="#000000" fill-rule="nonzero" fill-opacity="1" /><path clip-path="url(#clip170)" d="M1713.05 1471.55 L1713.05 1473.64 L1693.46 1473.64 Q1693.74 1478.03 1696.1 1480.35 Q1698.49 1482.64 1702.72 1482.64 Q1705.17 1482.64 1707.47 1482.04 Q1709.78 1481.44 1712.05 1480.23 L1712.05 1484.26 Q1709.76 1485.23 1707.35 1485.74 Q1704.94 1486.25 1702.47 1486.25 Q1696.26 1486.25 1692.63 1482.64 Q1689.02 1479.03 1689.02 1472.87 Q1689.02 1466.51 1692.44 1462.78 Q1695.89 1459.03 1701.73 1459.03 Q1706.96 1459.03 1709.99 1462.41 Q1713.05 1465.77 1713.05 1471.55 M1708.79 1470.3 Q1708.74 1466.81 1706.82 1464.72 Q1704.92 1462.64 1701.77 1462.64 Q1698.21 1462.64 1696.05 1464.65 Q1693.93 1466.67 1693.6 1470.33 L1708.79 1470.3 Z" fill="#000000" fill-rule="nonzero" fill-opacity="1" /><path clip-path="url(#clip170)" d="M1730.64 1454.1 Q1727.03 1454.1 1725.2 1457.66 Q1723.39 1461.2 1723.39 1468.33 Q1723.39 1475.44 1725.2 1479.01 Q1727.03 1482.55 1730.64 1482.55 Q1734.27 1482.55 1736.08 1479.01 Q1737.91 1475.44 1737.91 1468.33 Q1737.91 1461.2 1736.08 1457.66 Q1734.27 1454.1 1730.64 1454.1 M1730.64 1450.39 Q1736.45 1450.39 1739.5 1455 Q1742.58 1459.58 1742.58 1468.33 Q1742.58 1477.06 1739.5 1481.67 Q1736.45 1486.25 1730.64 1486.25 Q1724.83 1486.25 1721.75 1481.67 Q1718.69 1477.06 1718.69 1468.33 Q1718.69 1459.58 1721.75 1455 Q1724.83 1450.39 1730.64 1450.39 Z" fill="#000000" fill-rule="nonzero" fill-opacity="1" /><path clip-path="url(#clip170)" d="M1828.94 1463.73 L1834.61 1479.75 L1842.71 1459.65 L1847.22 1459.65 L1836.74 1485.58 L1836.74 1495.44 L1832.48 1495.44 L1832.48 1485.58 L1825.67 1466.23 Q1824.65 1463.31 1822.45 1463.31 L1821.32 1463.31 L1821.32 1459.65 L1822.94 1459.65 Q1827.5 1459.65 1828.94 1463.73 Z" fill="#000000" fill-rule="nonzero" fill-opacity="1" /><path clip-path="url(#clip170)" d="M1939.54 1472.55 Q1934.38 1472.55 1932.38 1473.73 Q1930.39 1474.91 1930.39 1477.76 Q1930.39 1480.02 1931.88 1481.37 Q1933.38 1482.69 1935.95 1482.69 Q1939.49 1482.69 1941.62 1480.19 Q1943.77 1477.66 1943.77 1473.5 L1943.77 1472.55 L1939.54 1472.55 M1948.03 1470.79 L1948.03 1485.58 L1943.77 1485.58 L1943.77 1481.64 Q1942.32 1484.01 1940.14 1485.14 Q1937.96 1486.25 1934.82 1486.25 Q1930.83 1486.25 1928.47 1484.03 Q1926.13 1481.78 1926.13 1478.03 Q1926.13 1473.66 1929.05 1471.44 Q1931.99 1469.21 1937.8 1469.21 L1943.77 1469.21 L1943.77 1468.8 Q1943.77 1465.86 1941.83 1464.26 Q1939.91 1462.64 1936.41 1462.64 Q1934.19 1462.64 1932.08 1463.17 Q1929.98 1463.7 1928.03 1464.77 L1928.03 1460.83 Q1930.37 1459.93 1932.57 1459.49 Q1934.77 1459.03 1936.85 1459.03 Q1942.48 1459.03 1945.25 1461.95 Q1948.03 1464.86 1948.03 1470.79 Z" fill="#000000" fill-rule="nonzero" fill-opacity="1" /><path clip-path="url(#clip170)" d="M1967.41 1454.1 Q1963.8 1454.1 1961.97 1457.66 Q1960.16 1461.2 1960.16 1468.33 Q1960.16 1475.44 1961.97 1479.01 Q1963.8 1482.55 1967.41 1482.55 Q1971.04 1482.55 1972.85 1479.01 Q1974.68 1475.44 1974.68 1468.33 Q1974.68 1461.2 1972.85 1457.66 Q1971.04 1454.1 1967.41 1454.1 M1967.41 1450.39 Q1973.22 1450.39 1976.27 1455 Q1979.35 1459.58 1979.35 1468.33 Q1979.35 1477.06 1976.27 1481.67 Q1973.22 1486.25 1967.41 1486.25 Q1961.6 1486.25 1958.52 1481.67 Q1955.46 1477.06 1955.46 1468.33 Q1955.46 1459.58 1958.52 1455 Q1961.6 1450.39 1967.41 1450.39 Z" fill="#000000" fill-rule="nonzero" fill-opacity="1" /><path clip-path="url(#clip170)" d="M2066.49 1460.65 L2066.49 1464.63 Q2064.69 1463.64 2062.86 1463.15 Q2061.05 1462.64 2059.2 1462.64 Q2055.06 1462.64 2052.77 1465.28 Q2050.47 1467.89 2050.47 1472.64 Q2050.47 1477.39 2052.77 1480.02 Q2055.06 1482.64 2059.2 1482.64 Q2061.05 1482.64 2062.86 1482.15 Q2064.69 1481.64 2066.49 1480.65 L2066.49 1484.58 Q2064.71 1485.42 2062.79 1485.83 Q2060.89 1486.25 2058.74 1486.25 Q2052.88 1486.25 2049.43 1482.57 Q2045.98 1478.89 2045.98 1472.64 Q2045.98 1466.3 2049.46 1462.66 Q2052.95 1459.03 2059.02 1459.03 Q2060.98 1459.03 2062.86 1459.45 Q2064.73 1459.84 2066.49 1460.65 Z" fill="#000000" fill-rule="nonzero" fill-opacity="1" /><path clip-path="url(#clip170)" d="M2084.5 1454.1 Q2080.89 1454.1 2079.06 1457.66 Q2077.26 1461.2 2077.26 1468.33 Q2077.26 1475.44 2079.06 1479.01 Q2080.89 1482.55 2084.5 1482.55 Q2088.14 1482.55 2089.94 1479.01 Q2091.77 1475.44 2091.77 1468.33 Q2091.77 1461.2 2089.94 1457.66 Q2088.14 1454.1 2084.5 1454.1 M2084.5 1450.39 Q2090.31 1450.39 2093.37 1455 Q2096.45 1459.58 2096.45 1468.33 Q2096.45 1477.06 2093.37 1481.67 Q2090.31 1486.25 2084.5 1486.25 Q2078.69 1486.25 2075.61 1481.67 Q2072.56 1477.06 2072.56 1468.33 Q2072.56 1459.58 2075.61 1455 Q2078.69 1450.39 2084.5 1450.39 Z" fill="#000000" fill-rule="nonzero" fill-opacity="1" /><path clip-path="url(#clip170)" d="M2184.72 1460.65 L2184.72 1464.63 Q2182.92 1463.64 2181.09 1463.15 Q2179.28 1462.64 2177.43 1462.64 Q2173.29 1462.64 2170.99 1465.28 Q2168.7 1467.89 2168.7 1472.64 Q2168.7 1477.39 2170.99 1480.02 Q2173.29 1482.64 2177.43 1482.64 Q2179.28 1482.64 2181.09 1482.15 Q2182.92 1481.64 2184.72 1480.65 L2184.72 1484.58 Q2182.94 1485.42 2181.02 1485.83 Q2179.12 1486.25 2176.97 1486.25 Q2171.11 1486.25 2167.66 1482.57 Q2164.21 1478.89 2164.21 1472.64 Q2164.21 1466.3 2167.68 1462.66 Q2171.18 1459.03 2177.24 1459.03 Q2179.21 1459.03 2181.09 1459.45 Q2182.96 1459.84 2184.72 1460.65 Z" fill="#000000" fill-rule="nonzero" fill-opacity="1" /><path clip-path="url(#clip170)" d="M2205.58 1455.09 L2193.77 1473.54 L2205.58 1473.54 L2205.58 1455.09 M2204.35 1451.02 L2210.23 1451.02 L2210.23 1473.54 L2215.16 1473.54 L2215.16 1477.43 L2210.23 1477.43 L2210.23 1485.58 L2205.58 1485.58 L2205.58 1477.43 L2189.98 1477.43 L2189.98 1472.92 L2204.35 1451.02 Z" fill="#000000" fill-rule="nonzero" fill-opacity="1" /><path clip-path="url(#clip170)" d="M1125.82 1525.81 L1125.82 1543.66 L1133.91 1543.66 Q1138.39 1543.66 1140.84 1541.34 Q1143.3 1539.02 1143.3 1534.72 Q1143.3 1530.45 1140.84 1528.13 Q1138.39 1525.81 1133.91 1525.81 L1125.82 1525.81 M1119.39 1520.52 L1133.91 1520.52 Q1141.89 1520.52 1145.97 1524.15 Q1150.07 1527.75 1150.07 1534.72 Q1150.07 1541.75 1145.97 1545.35 Q1141.89 1548.95 1133.91 1548.95 L1125.82 1548.95 L1125.82 1568.04 L1119.39 1568.04 L1119.39 1520.52 Z" fill="#000000" fill-rule="nonzero" fill-opacity="1" /><path clip-path="url(#clip170)" d="M1171.72 1550.12 Q1164.62 1550.12 1161.88 1551.75 Q1159.15 1553.37 1159.15 1557.29 Q1159.15 1560.4 1161.18 1562.25 Q1163.25 1564.07 1166.78 1564.07 Q1171.65 1564.07 1174.58 1560.63 Q1177.54 1557.16 1177.54 1551.43 L1177.54 1550.12 L1171.72 1550.12 M1183.4 1547.71 L1183.4 1568.04 L1177.54 1568.04 L1177.54 1562.63 Q1175.54 1565.88 1172.55 1567.44 Q1169.55 1568.97 1165.23 1568.97 Q1159.75 1568.97 1156.5 1565.91 Q1153.29 1562.82 1153.29 1557.67 Q1153.29 1551.65 1157.3 1548.6 Q1161.34 1545.54 1169.33 1545.54 L1177.54 1545.54 L1177.54 1544.97 Q1177.54 1540.93 1174.87 1538.73 Q1172.23 1536.5 1167.42 1536.5 Q1164.37 1536.5 1161.47 1537.23 Q1158.57 1537.97 1155.9 1539.43 L1155.9 1534.02 Q1159.11 1532.78 1162.14 1532.17 Q1165.16 1531.54 1168.03 1531.54 Q1175.76 1531.54 1179.58 1535.55 Q1183.4 1539.56 1183.4 1547.71 Z" fill="#000000" fill-rule="nonzero" fill-opacity="1" /><path clip-path="url(#clip170)" d="M1216.12 1537.87 Q1215.13 1537.3 1213.95 1537.04 Q1212.81 1536.76 1211.41 1536.76 Q1206.44 1536.76 1203.77 1540 Q1201.13 1543.22 1201.13 1549.27 L1201.13 1568.04 L1195.24 1568.04 L1195.24 1532.4 L1201.13 1532.4 L1201.13 1537.93 Q1202.97 1534.69 1205.93 1533.13 Q1208.89 1531.54 1213.13 1531.54 Q1213.73 1531.54 1214.46 1531.63 Q1215.2 1531.7 1216.09 1531.85 L1216.12 1537.87 Z" fill="#000000" fill-rule="nonzero" fill-opacity="1" /><path clip-path="url(#clip170)" d="M1238.46 1550.12 Q1231.36 1550.12 1228.63 1551.75 Q1225.89 1553.37 1225.89 1557.29 Q1225.89 1560.4 1227.93 1562.25 Q1230 1564.07 1233.53 1564.07 Q1238.4 1564.07 1241.33 1560.63 Q1244.29 1557.16 1244.29 1551.43 L1244.29 1550.12 L1238.46 1550.12 M1250.14 1547.71 L1250.14 1568.04 L1244.29 1568.04 L1244.29 1562.63 Q1242.28 1565.88 1239.29 1567.44 Q1236.3 1568.97 1231.97 1568.97 Q1226.5 1568.97 1223.25 1565.91 Q1220.03 1562.82 1220.03 1557.67 Q1220.03 1551.65 1224.04 1548.6 Q1228.09 1545.54 1236.08 1545.54 L1244.29 1545.54 L1244.29 1544.97 Q1244.29 1540.93 1241.61 1538.73 Q1238.97 1536.5 1234.17 1536.5 Q1231.11 1536.5 1228.21 1537.23 Q1225.32 1537.97 1222.64 1539.43 L1222.64 1534.02 Q1225.86 1532.78 1228.88 1532.17 Q1231.91 1531.54 1234.77 1531.54 Q1242.5 1531.54 1246.32 1535.55 Q1250.14 1539.56 1250.14 1547.71 Z" fill="#000000" fill-rule="nonzero" fill-opacity="1" /><path clip-path="url(#clip170)" d="M1289.96 1539.24 Q1292.16 1535.29 1295.21 1533.41 Q1298.27 1531.54 1302.41 1531.54 Q1307.98 1531.54 1311 1535.45 Q1314.02 1539.33 1314.02 1546.53 L1314.02 1568.04 L1308.14 1568.04 L1308.14 1546.72 Q1308.14 1541.59 1306.32 1539.11 Q1304.51 1536.63 1300.78 1536.63 Q1296.23 1536.63 1293.59 1539.65 Q1290.95 1542.68 1290.95 1547.9 L1290.95 1568.04 L1285.06 1568.04 L1285.06 1546.72 Q1285.06 1541.56 1283.25 1539.11 Q1281.43 1536.63 1277.64 1536.63 Q1273.16 1536.63 1270.51 1539.68 Q1267.87 1542.71 1267.87 1547.9 L1267.87 1568.04 L1261.98 1568.04 L1261.98 1532.4 L1267.87 1532.4 L1267.87 1537.93 Q1269.88 1534.66 1272.68 1533.1 Q1275.48 1531.54 1279.33 1531.54 Q1283.21 1531.54 1285.92 1533.51 Q1288.66 1535.48 1289.96 1539.24 Z" fill="#000000" fill-rule="nonzero" fill-opacity="1" /><path clip-path="url(#clip170)" d="M1356.2 1548.76 L1356.2 1551.62 L1329.27 1551.62 Q1329.65 1557.67 1332.9 1560.85 Q1336.18 1564 1342 1564 Q1345.37 1564 1348.53 1563.17 Q1351.71 1562.35 1354.83 1560.69 L1354.83 1566.23 Q1351.68 1567.57 1348.37 1568.27 Q1345.06 1568.97 1341.65 1568.97 Q1333.12 1568.97 1328.12 1564 Q1323.16 1559.04 1323.16 1550.57 Q1323.16 1541.82 1327.87 1536.69 Q1332.61 1531.54 1340.63 1531.54 Q1347.83 1531.54 1352 1536.18 Q1356.2 1540.8 1356.2 1548.76 M1350.34 1547.04 Q1350.28 1542.23 1347.63 1539.37 Q1345.02 1536.5 1340.7 1536.5 Q1335.79 1536.5 1332.83 1539.27 Q1329.91 1542.04 1329.46 1547.07 L1350.34 1547.04 Z" fill="#000000" fill-rule="nonzero" fill-opacity="1" /><path clip-path="url(#clip170)" d="M1371.6 1522.27 L1371.6 1532.4 L1383.66 1532.4 L1383.66 1536.95 L1371.6 1536.95 L1371.6 1556.3 Q1371.6 1560.66 1372.78 1561.9 Q1373.99 1563.14 1377.65 1563.14 L1383.66 1563.14 L1383.66 1568.04 L1377.65 1568.04 Q1370.87 1568.04 1368.29 1565.53 Q1365.71 1562.98 1365.71 1556.3 L1365.71 1536.95 L1361.42 1536.95 L1361.42 1532.4 L1365.71 1532.4 L1365.71 1522.27 L1371.6 1522.27 Z" fill="#000000" fill-rule="nonzero" fill-opacity="1" /><path clip-path="url(#clip170)" d="M1421.86 1548.76 L1421.86 1551.62 L1394.93 1551.62 Q1395.31 1557.67 1398.56 1560.85 Q1401.84 1564 1407.66 1564 Q1411.04 1564 1414.19 1563.17 Q1417.37 1562.35 1420.49 1560.69 L1420.49 1566.23 Q1417.34 1567.57 1414.03 1568.27 Q1410.72 1568.97 1407.31 1568.97 Q1398.78 1568.97 1393.79 1564 Q1388.82 1559.04 1388.82 1550.57 Q1388.82 1541.82 1393.53 1536.69 Q1398.27 1531.54 1406.29 1531.54 Q1413.49 1531.54 1417.66 1536.18 Q1421.86 1540.8 1421.86 1548.76 M1416 1547.04 Q1415.94 1542.23 1413.3 1539.37 Q1410.69 1536.5 1406.36 1536.5 Q1401.46 1536.5 1398.5 1539.27 Q1395.57 1542.04 1395.12 1547.07 L1416 1547.04 Z" fill="#000000" fill-rule="nonzero" fill-opacity="1" /><path clip-path="url(#clip170)" d="M1452.13 1537.87 Q1451.14 1537.3 1449.96 1537.04 Q1448.82 1536.76 1447.42 1536.76 Q1442.45 1536.76 1439.78 1540 Q1437.14 1543.22 1437.14 1549.27 L1437.14 1568.04 L1431.25 1568.04 L1431.25 1532.4 L1437.14 1532.4 L1437.14 1537.93 Q1438.98 1534.69 1441.94 1533.13 Q1444.9 1531.54 1449.14 1531.54 Q1449.74 1531.54 1450.47 1531.63 Q1451.2 1531.7 1452.1 1531.85 L1452.13 1537.87 Z" fill="#000000" fill-rule="nonzero" fill-opacity="1" /><path clip-path="url(#clip170)" d="M1481 1533.45 L1481 1538.98 Q1478.51 1537.71 1475.84 1537.07 Q1473.17 1536.44 1470.3 1536.44 Q1465.94 1536.44 1463.75 1537.77 Q1461.58 1539.11 1461.58 1541.79 Q1461.58 1543.82 1463.14 1545 Q1464.7 1546.15 1469.41 1547.2 L1471.42 1547.64 Q1477.65 1548.98 1480.26 1551.43 Q1482.91 1553.85 1482.91 1558.21 Q1482.91 1563.17 1478.96 1566.07 Q1475.04 1568.97 1468.17 1568.97 Q1465.3 1568.97 1462.19 1568.39 Q1459.1 1567.85 1455.66 1566.74 L1455.66 1560.69 Q1458.91 1562.38 1462.06 1563.24 Q1465.21 1564.07 1468.3 1564.07 Q1472.43 1564.07 1474.66 1562.66 Q1476.89 1561.23 1476.89 1558.65 Q1476.89 1556.27 1475.27 1554.99 Q1473.68 1553.72 1468.23 1552.54 L1466.2 1552.07 Q1460.75 1550.92 1458.33 1548.56 Q1455.92 1546.18 1455.92 1542.04 Q1455.92 1537.01 1459.48 1534.27 Q1463.04 1531.54 1469.6 1531.54 Q1472.85 1531.54 1475.71 1532.01 Q1478.58 1532.49 1481 1533.45 Z" fill="#000000" fill-rule="nonzero" fill-opacity="1" /><polyline clip-path="url(#clip172)" style="stroke:#000000; stroke-linecap:round; stroke-linejoin:round; stroke-width:2; stroke-opacity:0.1; fill:none" points="249.542,1423.18 2352.76,1423.18 "/>
<polyline clip-path="url(#clip172)" style="stroke:#000000; stroke-linecap:round; stroke-linejoin:round; stroke-width:2; stroke-opacity:0.1; fill:none" points="249.542,1012.63 2352.76,1012.63 "/>
<polyline clip-path="url(#clip172)" style="stroke:#000000; stroke-linecap:round; stroke-linejoin:round; stroke-width:2; stroke-opacity:0.1; fill:none" points="249.542,602.073 2352.76,602.073 "/>
<polyline clip-path="url(#clip172)" style="stroke:#000000; stroke-linecap:round; stroke-linejoin:round; stroke-width:2; stroke-opacity:0.1; fill:none" points="249.542,191.519 2352.76,191.519 "/>
<polyline clip-path="url(#clip170)" style="stroke:#000000; stroke-linecap:round; stroke-linejoin:round; stroke-width:4; stroke-opacity:1; fill:none" points="249.542,1423.18 249.542,47.2441 "/>
<polyline clip-path="url(#clip170)" style="stroke:#000000; stroke-linecap:round; stroke-linejoin:round; stroke-width:4; stroke-opacity:1; fill:none" points="249.542,1423.18 268.44,1423.18 "/>
<polyline clip-path="url(#clip170)" style="stroke:#000000; stroke-linecap:round; stroke-linejoin:round; stroke-width:4; stroke-opacity:1; fill:none" points="249.542,1012.63 268.44,1012.63 "/>
<polyline clip-path="url(#clip170)" style="stroke:#000000; stroke-linecap:round; stroke-linejoin:round; stroke-width:4; stroke-opacity:1; fill:none" points="249.542,602.073 268.44,602.073 "/>
<polyline clip-path="url(#clip170)" style="stroke:#000000; stroke-linecap:round; stroke-linejoin:round; stroke-width:4; stroke-opacity:1; fill:none" points="249.542,191.519 268.44,191.519 "/>
<path clip-path="url(#clip170)" d="M126.205 1408.98 Q122.593 1408.98 120.765 1412.54 Q118.959 1416.08 118.959 1423.21 Q118.959 1430.32 120.765 1433.89 Q122.593 1437.43 126.205 1437.43 Q129.839 1437.43 131.644 1433.89 Q133.473 1430.32 133.473 1423.21 Q133.473 1416.08 131.644 1412.54 Q129.839 1408.98 126.205 1408.98 M126.205 1405.27 Q132.015 1405.27 135.07 1409.88 Q138.149 1414.46 138.149 1423.21 Q138.149 1431.94 135.07 1436.55 Q132.015 1441.13 126.205 1441.13 Q120.394 1441.13 117.316 1436.55 Q114.26 1431.94 114.26 1423.21 Q114.26 1414.46 117.316 1409.88 Q120.394 1405.27 126.205 1405.27 Z" fill="#000000" fill-rule="nonzero" fill-opacity="1" /><path clip-path="url(#clip170)" d="M146.366 1434.58 L151.251 1434.58 L151.251 1440.46 L146.366 1440.46 L146.366 1434.58 Z" fill="#000000" fill-rule="nonzero" fill-opacity="1" /><path clip-path="url(#clip170)" d="M171.436 1408.98 Q167.825 1408.98 165.996 1412.54 Q164.19 1416.08 164.19 1423.21 Q164.19 1430.32 165.996 1433.89 Q167.825 1437.43 171.436 1437.43 Q175.07 1437.43 176.876 1433.89 Q178.704 1430.32 178.704 1423.21 Q178.704 1416.08 176.876 1412.54 Q175.07 1408.98 171.436 1408.98 M171.436 1405.27 Q177.246 1405.27 180.301 1409.88 Q183.38 1414.46 183.38 1423.21 Q183.38 1431.94 180.301 1436.55 Q177.246 1441.13 171.436 1441.13 Q165.626 1441.13 162.547 1436.55 Q159.491 1431.94 159.491 1423.21 Q159.491 1414.46 162.547 1409.88 Q165.626 1405.27 171.436 1405.27 Z" fill="#000000" fill-rule="nonzero" fill-opacity="1" /><path clip-path="url(#clip170)" d="M201.598 1408.98 Q197.987 1408.98 196.158 1412.54 Q194.352 1416.08 194.352 1423.21 Q194.352 1430.32 196.158 1433.89 Q197.987 1437.43 201.598 1437.43 Q205.232 1437.43 207.037 1433.89 Q208.866 1430.32 208.866 1423.21 Q208.866 1416.08 207.037 1412.54 Q205.232 1408.98 201.598 1408.98 M201.598 1405.27 Q207.408 1405.27 210.463 1409.88 Q213.542 1414.46 213.542 1423.21 Q213.542 1431.94 210.463 1436.55 Q207.408 1441.13 201.598 1441.13 Q195.787 1441.13 192.709 1436.55 Q189.653 1431.94 189.653 1423.21 Q189.653 1414.46 192.709 1409.88 Q195.787 1405.27 201.598 1405.27 Z" fill="#000000" fill-rule="nonzero" fill-opacity="1" /><path clip-path="url(#clip170)" d="M127.2 998.425 Q123.589 998.425 121.76 1001.99 Q119.955 1005.53 119.955 1012.66 Q119.955 1019.77 121.76 1023.33 Q123.589 1026.87 127.2 1026.87 Q130.834 1026.87 132.64 1023.33 Q134.468 1019.77 134.468 1012.66 Q134.468 1005.53 132.64 1001.99 Q130.834 998.425 127.2 998.425 M127.2 994.721 Q133.01 994.721 136.066 999.328 Q139.144 1003.91 139.144 1012.66 Q139.144 1021.39 136.066 1025.99 Q133.01 1030.58 127.2 1030.58 Q121.39 1030.58 118.311 1025.99 Q115.256 1021.39 115.256 1012.66 Q115.256 1003.91 118.311 999.328 Q121.39 994.721 127.2 994.721 Z" fill="#000000" fill-rule="nonzero" fill-opacity="1" /><path clip-path="url(#clip170)" d="M147.362 1024.03 L152.246 1024.03 L152.246 1029.91 L147.362 1029.91 L147.362 1024.03 Z" fill="#000000" fill-rule="nonzero" fill-opacity="1" /><path clip-path="url(#clip170)" d="M172.431 998.425 Q168.82 998.425 166.991 1001.99 Q165.186 1005.53 165.186 1012.66 Q165.186 1019.77 166.991 1023.33 Q168.82 1026.87 172.431 1026.87 Q176.065 1026.87 177.871 1023.33 Q179.7 1019.77 179.7 1012.66 Q179.7 1005.53 177.871 1001.99 Q176.065 998.425 172.431 998.425 M172.431 994.721 Q178.241 994.721 181.297 999.328 Q184.376 1003.91 184.376 1012.66 Q184.376 1021.39 181.297 1025.99 Q178.241 1030.58 172.431 1030.58 Q166.621 1030.58 163.542 1025.99 Q160.487 1021.39 160.487 1012.66 Q160.487 1003.91 163.542 999.328 Q166.621 994.721 172.431 994.721 Z" fill="#000000" fill-rule="nonzero" fill-opacity="1" /><path clip-path="url(#clip170)" d="M192.639 995.346 L210.996 995.346 L210.996 999.281 L196.922 999.281 L196.922 1007.75 Q197.94 1007.41 198.959 1007.24 Q199.977 1007.06 200.996 1007.06 Q206.783 1007.06 210.162 1010.23 Q213.542 1013.4 213.542 1018.82 Q213.542 1024.4 210.07 1027.5 Q206.598 1030.58 200.278 1030.58 Q198.102 1030.58 195.834 1030.21 Q193.588 1029.84 191.181 1029.1 L191.181 1024.4 Q193.264 1025.53 195.487 1026.09 Q197.709 1026.64 200.186 1026.64 Q204.19 1026.64 206.528 1024.54 Q208.866 1022.43 208.866 1018.82 Q208.866 1015.21 206.528 1013.1 Q204.19 1010.99 200.186 1010.99 Q198.311 1010.99 196.436 1011.41 Q194.584 1011.83 192.639 1012.71 L192.639 995.346 Z" fill="#000000" fill-rule="nonzero" fill-opacity="1" /><path clip-path="url(#clip170)" d="M126.205 587.871 Q122.593 587.871 120.765 591.436 Q118.959 594.978 118.959 602.108 Q118.959 609.214 120.765 612.779 Q122.593 616.32 126.205 616.32 Q129.839 616.32 131.644 612.779 Q133.473 609.214 133.473 602.108 Q133.473 594.978 131.644 591.436 Q129.839 587.871 126.205 587.871 M126.205 584.168 Q132.015 584.168 135.07 588.774 Q138.149 593.358 138.149 602.108 Q138.149 610.834 135.07 615.441 Q132.015 620.024 126.205 620.024 Q120.394 620.024 117.316 615.441 Q114.26 610.834 114.26 602.108 Q114.26 593.358 117.316 588.774 Q120.394 584.168 126.205 584.168 Z" fill="#000000" fill-rule="nonzero" fill-opacity="1" /><path clip-path="url(#clip170)" d="M146.366 613.473 L151.251 613.473 L151.251 619.353 L146.366 619.353 L146.366 613.473 Z" fill="#000000" fill-rule="nonzero" fill-opacity="1" /><path clip-path="url(#clip170)" d="M162.246 615.418 L169.885 615.418 L169.885 589.052 L161.575 590.719 L161.575 586.459 L169.839 584.793 L174.514 584.793 L174.514 615.418 L182.153 615.418 L182.153 619.353 L162.246 619.353 L162.246 615.418 Z" fill="#000000" fill-rule="nonzero" fill-opacity="1" /><path clip-path="url(#clip170)" d="M201.598 587.871 Q197.987 587.871 196.158 591.436 Q194.352 594.978 194.352 602.108 Q194.352 609.214 196.158 612.779 Q197.987 616.32 201.598 616.32 Q205.232 616.32 207.037 612.779 Q208.866 609.214 208.866 602.108 Q208.866 594.978 207.037 591.436 Q205.232 587.871 201.598 587.871 M201.598 584.168 Q207.408 584.168 210.463 588.774 Q213.542 593.358 213.542 602.108 Q213.542 610.834 210.463 615.441 Q207.408 620.024 201.598 620.024 Q195.787 620.024 192.709 615.441 Q189.653 610.834 189.653 602.108 Q189.653 593.358 192.709 588.774 Q195.787 584.168 201.598 584.168 Z" fill="#000000" fill-rule="nonzero" fill-opacity="1" /><path clip-path="url(#clip170)" d="M127.2 177.318 Q123.589 177.318 121.76 180.883 Q119.955 184.424 119.955 191.554 Q119.955 198.66 121.76 202.225 Q123.589 205.767 127.2 205.767 Q130.834 205.767 132.64 202.225 Q134.468 198.66 134.468 191.554 Q134.468 184.424 132.64 180.883 Q130.834 177.318 127.2 177.318 M127.2 173.614 Q133.01 173.614 136.066 178.221 Q139.144 182.804 139.144 191.554 Q139.144 200.281 136.066 204.887 Q133.01 209.471 127.2 209.471 Q121.39 209.471 118.311 204.887 Q115.256 200.281 115.256 191.554 Q115.256 182.804 118.311 178.221 Q121.39 173.614 127.2 173.614 Z" fill="#000000" fill-rule="nonzero" fill-opacity="1" /><path clip-path="url(#clip170)" d="M147.362 202.92 L152.246 202.92 L152.246 208.799 L147.362 208.799 L147.362 202.92 Z" fill="#000000" fill-rule="nonzero" fill-opacity="1" /><path clip-path="url(#clip170)" d="M163.241 204.864 L170.88 204.864 L170.88 178.499 L162.57 180.165 L162.57 175.906 L170.834 174.239 L175.51 174.239 L175.51 204.864 L183.149 204.864 L183.149 208.799 L163.241 208.799 L163.241 204.864 Z" fill="#000000" fill-rule="nonzero" fill-opacity="1" /><path clip-path="url(#clip170)" d="M192.639 174.239 L210.996 174.239 L210.996 178.174 L196.922 178.174 L196.922 186.647 Q197.94 186.299 198.959 186.137 Q199.977 185.952 200.996 185.952 Q206.783 185.952 210.162 189.123 Q213.542 192.295 213.542 197.711 Q213.542 203.29 210.07 206.392 Q206.598 209.471 200.278 209.471 Q198.102 209.471 195.834 209.1 Q193.588 208.73 191.181 207.989 L191.181 203.29 Q193.264 204.424 195.487 204.98 Q197.709 205.535 200.186 205.535 Q204.19 205.535 206.528 203.429 Q208.866 201.322 208.866 197.711 Q208.866 194.1 206.528 191.994 Q204.19 189.887 200.186 189.887 Q198.311 189.887 196.436 190.304 Q194.584 190.721 192.639 191.6 L192.639 174.239 Z" fill="#000000" fill-rule="nonzero" fill-opacity="1" /><path clip-path="url(#clip170)" d="M21.7677 907.197 L39.6235 907.197 L39.6235 899.113 Q39.6235 894.625 37.3 892.174 Q34.9765 889.724 30.6797 889.724 Q26.4147 889.724 24.0912 892.174 Q21.7677 894.625 21.7677 899.113 L21.7677 907.197 M16.4842 913.627 L16.4842 899.113 Q16.4842 891.124 20.1126 887.05 Q23.7092 882.944 30.6797 882.944 Q37.7138 882.944 41.3104 887.05 Q44.907 891.124 44.907 899.113 L44.907 907.197 L64.0042 907.197 L64.0042 913.627 L16.4842 913.627 Z" fill="#000000" fill-rule="nonzero" fill-opacity="1" /><path clip-path="url(#clip170)" d="M44.7161 846.405 L47.5806 846.405 L47.5806 873.332 Q53.6281 872.95 56.8109 869.703 Q59.9619 866.425 59.9619 860.6 Q59.9619 857.227 59.1344 854.076 Q58.3069 850.893 56.6518 847.774 L62.1899 847.774 Q63.5267 850.925 64.227 854.235 Q64.9272 857.545 64.9272 860.951 Q64.9272 869.481 59.9619 874.478 Q54.9967 879.443 46.5303 879.443 Q37.7774 879.443 32.6531 874.732 Q27.4968 869.99 27.4968 861.969 Q27.4968 854.776 32.1438 850.606 Q36.7589 846.405 44.7161 846.405 M42.9973 852.261 Q38.1912 852.325 35.3266 854.967 Q32.4621 857.577 32.4621 861.905 Q32.4621 866.807 35.2312 869.767 Q38.0002 872.695 43.0292 873.141 L42.9973 852.261 Z" fill="#000000" fill-rule="nonzero" fill-opacity="1" /><path clip-path="url(#clip170)" d="M33.8307 816.136 Q33.2578 817.123 33.0032 818.3 Q32.7167 819.446 32.7167 820.847 Q32.7167 825.812 35.9632 828.485 Q39.1779 831.127 45.2253 831.127 L64.0042 831.127 L64.0042 837.016 L28.3562 837.016 L28.3562 831.127 L33.8944 831.127 Q30.6479 829.281 29.0883 826.321 Q27.4968 823.361 27.4968 819.128 Q27.4968 818.523 27.5923 817.791 Q27.656 817.059 27.8151 816.168 L33.8307 816.136 Z" fill="#000000" fill-rule="nonzero" fill-opacity="1" /><path clip-path="url(#clip170)" d="M29.7248 785.772 L35.1993 785.772 Q33.8307 788.254 33.1623 790.769 Q32.4621 793.251 32.4621 795.798 Q32.4621 801.495 36.0905 804.646 Q39.6872 807.797 46.212 807.797 Q52.7369 807.797 56.3653 804.646 Q59.9619 801.495 59.9619 795.798 Q59.9619 793.251 59.2935 790.769 Q58.5933 788.254 57.2247 785.772 L62.6355 785.772 Q63.7814 788.222 64.3543 790.864 Q64.9272 793.474 64.9272 796.434 Q64.9272 804.487 59.8664 809.229 Q54.8057 813.972 46.212 813.972 Q37.491 813.972 32.4939 809.197 Q27.4968 804.391 27.4968 796.052 Q27.4968 793.347 28.0697 790.769 Q28.6108 788.191 29.7248 785.772 Z" fill="#000000" fill-rule="nonzero" fill-opacity="1" /><path clip-path="url(#clip170)" d="M44.7161 745.095 L47.5806 745.095 L47.5806 772.022 Q53.6281 771.64 56.8109 768.393 Q59.9619 765.115 59.9619 759.29 Q59.9619 755.916 59.1344 752.765 Q58.3069 749.583 56.6518 746.463 L62.1899 746.463 Q63.5267 749.614 64.227 752.925 Q64.9272 756.235 64.9272 759.64 Q64.9272 768.17 59.9619 773.167 Q54.9967 778.133 46.5303 778.133 Q37.7774 778.133 32.6531 773.422 Q27.4968 768.68 27.4968 760.659 Q27.4968 753.466 32.1438 749.296 Q36.7589 745.095 44.7161 745.095 M42.9973 750.951 Q38.1912 751.015 35.3266 753.657 Q32.4621 756.267 32.4621 760.595 Q32.4621 765.497 35.2312 768.457 Q38.0002 771.385 43.0292 771.831 L42.9973 750.951 Z" fill="#000000" fill-rule="nonzero" fill-opacity="1" /><path clip-path="url(#clip170)" d="M42.4881 705.85 L64.0042 705.85 L64.0042 711.707 L42.679 711.707 Q37.6183 711.707 35.1038 713.68 Q32.5894 715.653 32.5894 719.6 Q32.5894 724.343 35.6131 727.08 Q38.6368 729.817 43.8567 729.817 L64.0042 729.817 L64.0042 735.705 L28.3562 735.705 L28.3562 729.817 L33.8944 729.817 Q30.6797 727.716 29.0883 724.884 Q27.4968 722.019 27.4968 718.295 Q27.4968 712.152 31.3163 709.001 Q35.1038 705.85 42.4881 705.85 Z" fill="#000000" fill-rule="nonzero" fill-opacity="1" /><path clip-path="url(#clip170)" d="M18.2347 688.376 L28.3562 688.376 L28.3562 676.313 L32.9077 676.313 L32.9077 688.376 L52.2594 688.376 Q56.6199 688.376 57.8613 687.199 Q59.1026 685.989 59.1026 682.329 L59.1026 676.313 L64.0042 676.313 L64.0042 682.329 Q64.0042 689.108 61.4897 691.686 Q58.9434 694.265 52.2594 694.265 L32.9077 694.265 L32.9077 698.561 L28.3562 698.561 L28.3562 694.265 L18.2347 694.265 L18.2347 688.376 Z" fill="#000000" fill-rule="nonzero" fill-opacity="1" /><path clip-path="url(#clip170)" d="M46.0847 652.41 Q46.0847 659.508 47.7079 662.245 Q49.3312 664.982 53.2461 664.982 Q56.3653 664.982 58.2114 662.945 Q60.0256 660.876 60.0256 657.343 Q60.0256 652.474 56.5881 649.545 Q53.1188 646.585 47.3897 646.585 L46.0847 646.585 L46.0847 652.41 M43.6657 640.729 L64.0042 640.729 L64.0042 646.585 L58.5933 646.585 Q61.8398 648.591 63.3994 651.582 Q64.9272 654.574 64.9272 658.903 Q64.9272 664.378 61.8716 667.624 Q58.7843 670.839 53.6281 670.839 Q47.6125 670.839 44.5569 666.828 Q41.5014 662.786 41.5014 654.797 L41.5014 646.585 L40.9285 646.585 Q36.8862 646.585 34.6901 649.259 Q32.4621 651.901 32.4621 656.707 Q32.4621 659.762 33.1941 662.659 Q33.9262 665.555 35.3903 668.229 L29.9795 668.229 Q28.7381 665.014 28.1334 661.99 Q27.4968 658.967 27.4968 656.102 Q27.4968 648.368 31.5072 644.548 Q35.5176 640.729 43.6657 640.729 Z" fill="#000000" fill-rule="nonzero" fill-opacity="1" /><path clip-path="url(#clip170)" d="M45.7664 605.208 Q39.4007 605.208 35.8996 607.85 Q32.3984 610.46 32.3984 615.202 Q32.3984 619.913 35.8996 622.555 Q39.4007 625.165 45.7664 625.165 Q52.1003 625.165 55.6014 622.555 Q59.1026 619.913 59.1026 615.202 Q59.1026 610.46 55.6014 607.85 Q52.1003 605.208 45.7664 605.208 M59.58 599.352 Q68.683 599.352 73.1071 603.394 Q77.5631 607.436 77.5631 615.775 Q77.5631 618.863 77.0857 621.6 Q76.6401 624.337 75.6852 626.915 L69.9879 626.915 Q71.3884 624.337 72.0568 621.823 Q72.7252 619.308 72.7252 616.698 Q72.7252 610.937 69.7015 608.073 Q66.7096 605.208 60.6303 605.208 L57.7339 605.208 Q60.885 607.023 62.4446 609.855 Q64.0042 612.688 64.0042 616.635 Q64.0042 623.191 59.0071 627.202 Q54.01 631.212 45.7664 631.212 Q37.491 631.212 32.4939 627.202 Q27.4968 623.191 27.4968 616.635 Q27.4968 612.688 29.0564 609.855 Q30.616 607.023 33.7671 605.208 L28.3562 605.208 L28.3562 599.352 L59.58 599.352 Z" fill="#000000" fill-rule="nonzero" fill-opacity="1" /><path clip-path="url(#clip170)" d="M44.7161 556.797 L47.5806 556.797 L47.5806 583.724 Q53.6281 583.342 56.8109 580.096 Q59.9619 576.817 59.9619 570.993 Q59.9619 567.619 59.1344 564.468 Q58.3069 561.285 56.6518 558.166 L62.1899 558.166 Q63.5267 561.317 64.227 564.627 Q64.9272 567.937 64.9272 571.343 Q64.9272 579.873 59.9619 584.87 Q54.9967 589.835 46.5303 589.835 Q37.7774 589.835 32.6531 585.125 Q27.4968 580.382 27.4968 572.361 Q27.4968 565.168 32.1438 560.998 Q36.7589 556.797 44.7161 556.797 M42.9973 562.654 Q38.1912 562.717 35.3266 565.359 Q32.4621 567.969 32.4621 572.298 Q32.4621 577.199 35.2312 580.159 Q38.0002 583.087 43.0292 583.533 L42.9973 562.654 Z" fill="#000000" fill-rule="nonzero" fill-opacity="1" /><path clip-path="url(#clip172)" d="M365.223 47.2441 L365.223 1423.18 L460 1423.18 L460 47.2441 L365.223 47.2441 L365.223 47.2441  Z" fill="#009af9" fill-rule="evenodd" fill-opacity="1"/>
<polyline clip-path="url(#clip172)" style="stroke:#000000; stroke-linecap:round; stroke-linejoin:round; stroke-width:4; stroke-opacity:1; fill:none" points="365.223,47.2441 365.223,1423.18 460,1423.18 460,47.2441 365.223,47.2441 "/>
<path clip-path="url(#clip172)" d="M483.694 87.1586 L483.694 1423.18 L578.472 1423.18 L578.472 87.1586 L483.694 87.1586 L483.694 87.1586  Z" fill="#009af9" fill-rule="evenodd" fill-opacity="1"/>
<polyline clip-path="url(#clip172)" style="stroke:#000000; stroke-linecap:round; stroke-linejoin:round; stroke-width:4; stroke-opacity:1; fill:none" points="483.694,87.1586 483.694,1423.18 578.472,1423.18 578.472,87.1586 483.694,87.1586 "/>
<path clip-path="url(#clip172)" d="M602.166 190.238 L602.166 1423.18 L696.943 1423.18 L696.943 190.238 L602.166 190.238 L602.166 190.238  Z" fill="#009af9" fill-rule="evenodd" fill-opacity="1"/>
<polyline clip-path="url(#clip172)" style="stroke:#000000; stroke-linecap:round; stroke-linejoin:round; stroke-width:4; stroke-opacity:1; fill:none" points="602.166,190.238 602.166,1423.18 696.943,1423.18 696.943,190.238 602.166,190.238 "/>
<path clip-path="url(#clip172)" d="M720.638 193.102 L720.638 1423.18 L815.415 1423.18 L815.415 193.102 L720.638 193.102 L720.638 193.102  Z" fill="#009af9" fill-rule="evenodd" fill-opacity="1"/>
<polyline clip-path="url(#clip172)" style="stroke:#000000; stroke-linecap:round; stroke-linejoin:round; stroke-width:4; stroke-opacity:1; fill:none" points="720.638,193.102 720.638,1423.18 815.415,1423.18 815.415,193.102 720.638,193.102 "/>
<path clip-path="url(#clip172)" d="M839.109 249.658 L839.109 1423.18 L933.887 1423.18 L933.887 249.658 L839.109 249.658 L839.109 249.658  Z" fill="#009af9" fill-rule="evenodd" fill-opacity="1"/>
<polyline clip-path="url(#clip172)" style="stroke:#000000; stroke-linecap:round; stroke-linejoin:round; stroke-width:4; stroke-opacity:1; fill:none" points="839.109,249.658 839.109,1423.18 933.887,1423.18 933.887,249.658 839.109,249.658 "/>
<path clip-path="url(#clip172)" d="M957.581 460.411 L957.581 1423.18 L1052.36 1423.18 L1052.36 460.411 L957.581 460.411 L957.581 460.411  Z" fill="#009af9" fill-rule="evenodd" fill-opacity="1"/>
<polyline clip-path="url(#clip172)" style="stroke:#000000; stroke-linecap:round; stroke-linejoin:round; stroke-width:4; stroke-opacity:1; fill:none" points="957.581,460.411 957.581,1423.18 1052.36,1423.18 1052.36,460.411 957.581,460.411 "/>
<path clip-path="url(#clip172)" d="M1076.05 1163.93 L1076.05 1423.18 L1170.83 1423.18 L1170.83 1163.93 L1076.05 1163.93 L1076.05 1163.93  Z" fill="#009af9" fill-rule="evenodd" fill-opacity="1"/>
<polyline clip-path="url(#clip172)" style="stroke:#000000; stroke-linecap:round; stroke-linejoin:round; stroke-width:4; stroke-opacity:1; fill:none" points="1076.05,1163.93 1076.05,1423.18 1170.83,1423.18 1170.83,1163.93 1076.05,1163.93 "/>
<path clip-path="url(#clip172)" d="M1194.52 1408.18 L1194.52 1423.18 L1289.3 1423.18 L1289.3 1408.18 L1194.52 1408.18 L1194.52 1408.18  Z" fill="#009af9" fill-rule="evenodd" fill-opacity="1"/>
<polyline clip-path="url(#clip172)" style="stroke:#000000; stroke-linecap:round; stroke-linejoin:round; stroke-width:4; stroke-opacity:1; fill:none" points="1194.52,1408.18 1194.52,1423.18 1289.3,1423.18 1289.3,1408.18 1194.52,1408.18 "/>
<path clip-path="url(#clip172)" d="M1313 1422.83 L1313 1423.18 L1407.77 1423.18 L1407.77 1422.83 L1313 1422.83 L1313 1422.83  Z" fill="#009af9" fill-rule="evenodd" fill-opacity="1"/>
<polyline clip-path="url(#clip172)" style="stroke:#000000; stroke-linecap:round; stroke-linejoin:round; stroke-width:4; stroke-opacity:1; fill:none" points="1313,1422.83 1313,1423.18 1407.77,1423.18 1407.77,1422.83 1313,1422.83 "/>
<path clip-path="url(#clip172)" d="M1431.47 1423.15 L1431.47 1423.18 L1526.25 1423.18 L1526.25 1423.15 L1431.47 1423.15 L1431.47 1423.15  Z" fill="#009af9" fill-rule="evenodd" fill-opacity="1"/>
<polyline clip-path="url(#clip172)" style="stroke:#000000; stroke-linecap:round; stroke-linejoin:round; stroke-width:4; stroke-opacity:1; fill:none" points="1431.47,1423.15 1431.47,1423.18 1526.25,1423.18 1526.25,1423.15 1431.47,1423.15 "/>
<path clip-path="url(#clip172)" d="M1549.94 1423.17 L1549.94 1423.18 L1644.72 1423.18 L1644.72 1423.17 L1549.94 1423.17 L1549.94 1423.17  Z" fill="#009af9" fill-rule="evenodd" fill-opacity="1"/>
<polyline clip-path="url(#clip172)" style="stroke:#000000; stroke-linecap:round; stroke-linejoin:round; stroke-width:4; stroke-opacity:1; fill:none" points="1549.94,1423.17 1549.94,1423.18 1644.72,1423.18 1644.72,1423.17 1549.94,1423.17 "/>
<path clip-path="url(#clip172)" d="M1668.41 1423.17 L1668.41 1423.18 L1763.19 1423.18 L1763.19 1423.17 L1668.41 1423.17 L1668.41 1423.17  Z" fill="#009af9" fill-rule="evenodd" fill-opacity="1"/>
<polyline clip-path="url(#clip172)" style="stroke:#000000; stroke-linecap:round; stroke-linejoin:round; stroke-width:4; stroke-opacity:1; fill:none" points="1668.41,1423.17 1668.41,1423.18 1763.19,1423.18 1763.19,1423.17 1668.41,1423.17 "/>
<path clip-path="url(#clip172)" d="M1786.88 1423.18 L1786.88 1423.18 L1881.66 1423.18 L1881.66 1423.18 L1786.88 1423.18 L1786.88 1423.18  Z" fill="#009af9" fill-rule="evenodd" fill-opacity="1"/>
<polyline clip-path="url(#clip172)" style="stroke:#000000; stroke-linecap:round; stroke-linejoin:round; stroke-width:4; stroke-opacity:1; fill:none" points="1786.88,1423.18 1786.88,1423.18 1881.66,1423.18 1881.66,1423.18 1786.88,1423.18 "/>
<path clip-path="url(#clip172)" d="M1905.35 1423.18 L1905.35 1423.18 L2000.13 1423.18 L2000.13 1423.18 L1905.35 1423.18 L1905.35 1423.18  Z" fill="#009af9" fill-rule="evenodd" fill-opacity="1"/>
<polyline clip-path="url(#clip172)" style="stroke:#000000; stroke-linecap:round; stroke-linejoin:round; stroke-width:4; stroke-opacity:1; fill:none" points="1905.35,1423.18 1905.35,1423.18 2000.13,1423.18 2000.13,1423.18 1905.35,1423.18 "/>
<path clip-path="url(#clip172)" d="M2023.83 1423.18 L2023.83 1423.18 L2118.6 1423.18 L2118.6 1423.18 L2023.83 1423.18 L2023.83 1423.18  Z" fill="#009af9" fill-rule="evenodd" fill-opacity="1"/>
<polyline clip-path="url(#clip172)" style="stroke:#000000; stroke-linecap:round; stroke-linejoin:round; stroke-width:4; stroke-opacity:1; fill:none" points="2023.83,1423.18 2023.83,1423.18 2118.6,1423.18 2118.6,1423.18 2023.83,1423.18 "/>
<path clip-path="url(#clip172)" d="M2142.3 1423.18 L2142.3 1423.18 L2237.08 1423.18 L2237.08 1423.18 L2142.3 1423.18 L2142.3 1423.18  Z" fill="#009af9" fill-rule="evenodd" fill-opacity="1"/>
<polyline clip-path="url(#clip172)" style="stroke:#000000; stroke-linecap:round; stroke-linejoin:round; stroke-width:4; stroke-opacity:1; fill:none" points="2142.3,1423.18 2142.3,1423.18 2237.08,1423.18 2237.08,1423.18 2142.3,1423.18 "/>
<circle clip-path="url(#clip172)" style="fill:#009af9; stroke:none; fill-opacity:0" cx="412.611" cy="47.2441" r="2"/>
<circle clip-path="url(#clip172)" style="fill:#009af9; stroke:none; fill-opacity:0" cx="531.083" cy="87.1586" r="2"/>
<circle clip-path="url(#clip172)" style="fill:#009af9; stroke:none; fill-opacity:0" cx="649.555" cy="190.238" r="2"/>
<circle clip-path="url(#clip172)" style="fill:#009af9; stroke:none; fill-opacity:0" cx="768.026" cy="193.102" r="2"/>
<circle clip-path="url(#clip172)" style="fill:#009af9; stroke:none; fill-opacity:0" cx="886.498" cy="249.658" r="2"/>
<circle clip-path="url(#clip172)" style="fill:#009af9; stroke:none; fill-opacity:0" cx="1004.97" cy="460.411" r="2"/>
<circle clip-path="url(#clip172)" style="fill:#009af9; stroke:none; fill-opacity:0" cx="1123.44" cy="1163.93" r="2"/>
<circle clip-path="url(#clip172)" style="fill:#009af9; stroke:none; fill-opacity:0" cx="1241.91" cy="1408.18" r="2"/>
<circle clip-path="url(#clip172)" style="fill:#009af9; stroke:none; fill-opacity:0" cx="1360.38" cy="1422.83" r="2"/>
<circle clip-path="url(#clip172)" style="fill:#009af9; stroke:none; fill-opacity:0" cx="1478.86" cy="1423.15" r="2"/>
<circle clip-path="url(#clip172)" style="fill:#009af9; stroke:none; fill-opacity:0" cx="1597.33" cy="1423.17" r="2"/>
<circle clip-path="url(#clip172)" style="fill:#009af9; stroke:none; fill-opacity:0" cx="1715.8" cy="1423.17" r="2"/>
<circle clip-path="url(#clip172)" style="fill:#009af9; stroke:none; fill-opacity:0" cx="1834.27" cy="1423.18" r="2"/>
<circle clip-path="url(#clip172)" style="fill:#009af9; stroke:none; fill-opacity:0" cx="1952.74" cy="1423.18" r="2"/>
<circle clip-path="url(#clip172)" style="fill:#009af9; stroke:none; fill-opacity:0" cx="2071.22" cy="1423.18" r="2"/>
<circle clip-path="url(#clip172)" style="fill:#009af9; stroke:none; fill-opacity:0" cx="2189.69" cy="1423.18" r="2"/>
</svg>
